M48
;Layer_Color=9474304
;FILE_FORMAT=2:5
INCH,LZ
;TYPE=PLATED
T1F00S00C0.01575
T3F00S00C0.03543
T4F00S00C0.03937
T5F00S00C0.09055
%
T01
X0211Y0028
X0217
X0106846Y0021015
Y0016015
X0100846
Y0021015
X0008Y0036
Y0041
X0014
Y0036
X0071Y0047
Y0052
X0077
Y0047
X0049Y0079
Y0084
X0043
Y0079
Y0129
Y0134
X0049
Y0129
X0122Y0113
Y0108
X0128
Y0113
X0202Y013
Y0135
X0208
Y013
X0211Y0033
X0217
X0208Y0213
Y0218
X0202
Y0213
X0239
Y0208
X0245
Y0213
X0209Y0268
Y0273
X0203
Y0268
Y0331
Y0336
X0209
Y0331
X0048Y033
Y0325
X0042
Y033
X0043Y0262
Y0257
X0049
Y0262
X0011Y0212
Y0207
X0005
Y0212
T03
X0021Y0066
X0031
Y0076
X0021
Y0086
X0031
Y0096
X0021
Y0106
X0031
Y0116
X0021
Y0126
X0031
Y0136
X0021
Y0146
X0031
Y0156
X0021
Y0166
X0031
Y0176
X0021
Y0186
X0031
X0061
Y0176
Y0166
Y0156
Y0146
Y0136
Y0126
Y0116
Y0106
Y0096
Y0086
Y0076
Y0066
X0071
X0081
Y0076
Y0086
Y0096
Y0106
Y0116
Y0126
Y0136
Y0146
Y0156
Y0166
Y0176
Y0186
X0091
Y0176
Y0166
Y0156
Y0146
Y0136
Y0126
Y0116
Y0106
Y0096
Y0086
Y0076
Y0066
X0101
X0111
Y0076
X0101
Y0086
X0111
Y0096
X0101
Y0106
X0111
Y0116
X0101
Y0126
X0111
Y0136
X0101
Y0146
X0111
Y0156
X0101
Y0166
X0111
Y0176
X0101
Y0186
X0111
X0141
Y0176
Y0166
Y0156
Y0146
Y0136
Y0126
Y0116
Y0106
Y0096
Y0086
Y0076
Y0066
X0151
X0161
Y0076
Y0086
Y0096
Y0106
Y0116
Y0126
Y0136
Y0146
Y0156
Y0166
Y0176
Y0186
X0151
Y0176
Y0166
Y0156
Y0146
Y0136
Y0126
Y0116
Y0106
Y0096
Y0086
Y0076
X0071
Y0086
Y0096
Y0106
Y0116
Y0126
Y0136
Y0146
Y0156
Y0166
Y0176
Y0186
X0171
X0181
Y0176
Y0166
Y0156
Y0146
Y0136
Y0126
Y0116
Y0106
Y0096
Y0086
Y0076
Y0066
X0191
Y0076
Y0086
Y0096
Y0106
Y0116
Y0126
Y0136
Y0146
Y0156
Y0166
Y0176
Y0186
X0221
Y0176
Y0166
Y0156
Y0146
Y0136
Y0126
Y0116
Y0106
Y0096
Y0086
Y0076
Y0066
X0231
Y0076
Y0086
Y0096
Y0106
Y0116
Y0126
Y0136
Y0146
Y0156
Y0166
Y0176
Y0186
X0171Y0176
Y0166
Y0156
Y0146
Y0136
Y0126
Y0116
Y0106
Y0096
Y0086
Y0076
Y0066
Y0196
X0181
X0191
Y0206
X0181
Y0216
X0191
Y0226
X0181
Y0236
X0191
Y0246
X0181
Y0256
X0191
Y0266
X0181
Y0276
X0191
Y0286
X0181
Y0296
X0191
Y0306
Y0316
X0181
Y0326
X0191
Y0336
X0181
X0171
Y0326
Y0316
Y0306
X0181
X0171Y0296
Y0286
Y0276
Y0266
Y0256
Y0246
Y0236
Y0226
Y0216
Y0206
X0221
Y0196
X0231
Y0206
Y0216
X0221
Y0226
X0231
Y0236
X0221
Y0246
X0231
Y0256
X0221
Y0266
X0231
Y0276
X0221
Y0286
X0231
Y0296
X0221
Y0306
Y0316
X0231
Y0326
X0221
Y0336
X0231
Y0306
X0161
Y0316
Y0326
Y0336
X0151
Y0326
Y0316
X0141
Y0326
Y0336
Y0306
Y0296
Y0286
Y0276
Y0266
Y0256
Y0246
Y0236
Y0226
Y0216
Y0206
Y0196
X0151
X0161
Y0206
Y0216
Y0226
Y0236
Y0246
Y0256
Y0266
Y0276
Y0286
Y0296
X0151
Y0286
Y0276
Y0266
Y0256
Y0246
Y0236
Y0226
Y0216
Y0206
X0111
Y0196
X0101
X0091
Y0206
Y0216
Y0226
Y0236
Y0246
Y0256
Y0266
Y0276
Y0286
Y0296
Y0306
X0081
Y0296
Y0286
Y0276
Y0266
Y0256
Y0246
Y0236
Y0226
Y0216
Y0206
Y0196
X0071
X0061
Y0206
X0071
Y0216
X0061
Y0226
X0071
Y0236
X0061
Y0246
X0071
Y0256
X0061
Y0266
X0071
Y0276
X0061
Y0286
X0071
Y0296
X0061
Y0306
Y0316
X0071
X0081
Y0326
Y0336
X0091
Y0326
Y0316
X0101
X0111
Y0326
X0101
Y0336
X0111
Y0306
Y0296
Y0286
Y0276
Y0266
Y0256
Y0246
Y0236
Y0226
Y0216
X0101
Y0206
Y0226
Y0236
Y0246
Y0256
Y0266
Y0276
Y0286
Y0296
Y0306
X0071
Y0326
X0061
Y0336
X0071
X0031
Y0326
Y0316
X0021
Y0326
Y0336
Y0306
Y0296
Y0286
Y0276
Y0266
Y0256
Y0246
Y0236
Y0226
Y0216
Y0206
Y0196
X0031
Y0206
Y0216
Y0226
Y0236
Y0246
Y0256
Y0266
Y0276
Y0286
Y0296
Y0306
X0151
Y0346
X0161
Y0356
X0151
X0141
Y0346
X0111
X0101
X0091
Y0356
X0081
Y0346
X0071
X0061
Y0356
X0071
X0101
X0111
X0031
Y0346
X0021
Y0356
X0171
X0181
Y0346
X0191
Y0356
X0221
Y0346
X0231
Y0356
X0171Y0346
T04
X0021126Y0009142
X0029
X0036874
Y0026858
X0029
X0021126
T05
X0046Y006
X0206
X0046Y0355
X0206
M30
