G04*
G04 #@! TF.GenerationSoftware,Altium Limited,Altium Designer,21.3.2 (30)*
G04*
G04 Layer_Color=16711935*
%FSLAX25Y25*%
%MOIN*%
G70*
G04*
G04 #@! TF.SameCoordinates,2023AB48-87E7-4F87-960C-B21D90223C06*
G04*
G04*
G04 #@! TF.FilePolarity,Negative*
G04*
G01*
G75*
%ADD18C,0.05906*%
%ADD27R,0.05906X0.05906*%
%ADD28C,0.13780*%
%ADD29R,0.06000X0.06000*%
%ADD30C,0.06000*%
%ADD31O,0.03937X0.07087*%
%ADD32C,0.03150*%
D18*
X81000Y306000D02*
D03*
X91000D02*
D03*
X81000Y296000D02*
D03*
X91000D02*
D03*
X81000Y286000D02*
D03*
X91000D02*
D03*
X81000Y276000D02*
D03*
X91000D02*
D03*
X81000Y266000D02*
D03*
X91000D02*
D03*
X81000Y256000D02*
D03*
X91000D02*
D03*
X81000Y246000D02*
D03*
X91000D02*
D03*
X81000Y236000D02*
D03*
X91000D02*
D03*
X81000Y226000D02*
D03*
X91000D02*
D03*
X81000Y216000D02*
D03*
X91000D02*
D03*
X81000Y206000D02*
D03*
X91000D02*
D03*
X81000Y196000D02*
D03*
X91000D02*
D03*
X81000Y186000D02*
D03*
X91000D02*
D03*
X81000Y176000D02*
D03*
X91000D02*
D03*
X81000Y166000D02*
D03*
X91000D02*
D03*
X81000Y156000D02*
D03*
X91000D02*
D03*
X81000Y146000D02*
D03*
X91000D02*
D03*
X81000Y136000D02*
D03*
X91000D02*
D03*
X81000Y126000D02*
D03*
X91000D02*
D03*
X81000Y116000D02*
D03*
X91000D02*
D03*
X81000Y106000D02*
D03*
X91000D02*
D03*
X81000Y96000D02*
D03*
X91000D02*
D03*
X81000Y86000D02*
D03*
X91000D02*
D03*
X81000Y76000D02*
D03*
X91000D02*
D03*
X81000Y66000D02*
D03*
Y356000D02*
D03*
X91000D02*
D03*
X81000Y346000D02*
D03*
X91000D02*
D03*
X81000Y336000D02*
D03*
X91000D02*
D03*
X81000Y326000D02*
D03*
X91000D02*
D03*
X81000Y316000D02*
D03*
X91000D02*
D03*
X231000D02*
D03*
X221000D02*
D03*
X231000Y326000D02*
D03*
X221000D02*
D03*
X231000Y336000D02*
D03*
X221000D02*
D03*
X231000Y346000D02*
D03*
X221000D02*
D03*
X231000Y356000D02*
D03*
X221000D02*
D03*
Y66000D02*
D03*
X231000Y76000D02*
D03*
X221000D02*
D03*
X231000Y86000D02*
D03*
X221000D02*
D03*
X231000Y96000D02*
D03*
X221000D02*
D03*
X231000Y106000D02*
D03*
X221000D02*
D03*
X231000Y116000D02*
D03*
X221000D02*
D03*
X231000Y126000D02*
D03*
X221000D02*
D03*
X231000Y136000D02*
D03*
X221000D02*
D03*
X231000Y146000D02*
D03*
X221000D02*
D03*
X231000Y156000D02*
D03*
X221000D02*
D03*
X231000Y166000D02*
D03*
X221000D02*
D03*
X231000Y176000D02*
D03*
X221000D02*
D03*
X231000Y186000D02*
D03*
X221000D02*
D03*
X231000Y196000D02*
D03*
X221000D02*
D03*
X231000Y206000D02*
D03*
X221000D02*
D03*
X231000Y216000D02*
D03*
X221000D02*
D03*
X231000Y226000D02*
D03*
X221000D02*
D03*
X231000Y236000D02*
D03*
X221000D02*
D03*
X231000Y246000D02*
D03*
X221000D02*
D03*
X231000Y256000D02*
D03*
X221000D02*
D03*
X231000Y266000D02*
D03*
X221000D02*
D03*
X231000Y276000D02*
D03*
X221000D02*
D03*
X231000Y286000D02*
D03*
X221000D02*
D03*
X231000Y296000D02*
D03*
X221000D02*
D03*
X231000Y306000D02*
D03*
X221000D02*
D03*
X191000Y316000D02*
D03*
X181000D02*
D03*
X191000Y326000D02*
D03*
X181000D02*
D03*
X191000Y336000D02*
D03*
X181000D02*
D03*
X191000Y346000D02*
D03*
X181000D02*
D03*
X191000Y356000D02*
D03*
X181000D02*
D03*
Y66000D02*
D03*
X191000Y76000D02*
D03*
X181000D02*
D03*
X191000Y86000D02*
D03*
X181000D02*
D03*
X191000Y96000D02*
D03*
X181000D02*
D03*
X191000Y106000D02*
D03*
X181000D02*
D03*
X191000Y116000D02*
D03*
X181000D02*
D03*
X191000Y126000D02*
D03*
X181000D02*
D03*
X191000Y136000D02*
D03*
X181000D02*
D03*
X191000Y146000D02*
D03*
X181000D02*
D03*
X191000Y156000D02*
D03*
X181000D02*
D03*
X191000Y166000D02*
D03*
X181000D02*
D03*
X191000Y176000D02*
D03*
X181000D02*
D03*
X191000Y186000D02*
D03*
X181000D02*
D03*
X191000Y196000D02*
D03*
X181000D02*
D03*
X191000Y206000D02*
D03*
X181000D02*
D03*
X191000Y216000D02*
D03*
X181000D02*
D03*
X191000Y226000D02*
D03*
X181000D02*
D03*
X191000Y236000D02*
D03*
X181000D02*
D03*
X191000Y246000D02*
D03*
X181000D02*
D03*
X191000Y256000D02*
D03*
X181000D02*
D03*
X191000Y266000D02*
D03*
X181000D02*
D03*
X191000Y276000D02*
D03*
X181000D02*
D03*
X191000Y286000D02*
D03*
X181000D02*
D03*
X191000Y296000D02*
D03*
X181000D02*
D03*
X191000Y306000D02*
D03*
X181000D02*
D03*
X171000Y316000D02*
D03*
X161000D02*
D03*
X171000Y326000D02*
D03*
X161000D02*
D03*
X171000Y336000D02*
D03*
X161000D02*
D03*
X171000Y346000D02*
D03*
X161000D02*
D03*
X171000Y356000D02*
D03*
X161000D02*
D03*
Y66000D02*
D03*
X171000Y76000D02*
D03*
X161000D02*
D03*
X171000Y86000D02*
D03*
X161000D02*
D03*
X171000Y96000D02*
D03*
X161000D02*
D03*
X171000Y106000D02*
D03*
X161000D02*
D03*
X171000Y116000D02*
D03*
X161000D02*
D03*
X171000Y126000D02*
D03*
X161000D02*
D03*
X171000Y136000D02*
D03*
X161000D02*
D03*
X171000Y146000D02*
D03*
X161000D02*
D03*
X171000Y156000D02*
D03*
X161000D02*
D03*
X171000Y166000D02*
D03*
X161000D02*
D03*
X171000Y176000D02*
D03*
X161000D02*
D03*
X171000Y186000D02*
D03*
X161000D02*
D03*
X171000Y196000D02*
D03*
X161000D02*
D03*
X171000Y206000D02*
D03*
X161000D02*
D03*
X171000Y216000D02*
D03*
X161000D02*
D03*
X171000Y226000D02*
D03*
X161000D02*
D03*
X171000Y236000D02*
D03*
X161000D02*
D03*
X171000Y246000D02*
D03*
X161000D02*
D03*
X171000Y256000D02*
D03*
X161000D02*
D03*
X171000Y266000D02*
D03*
X161000D02*
D03*
X171000Y276000D02*
D03*
X161000D02*
D03*
X171000Y286000D02*
D03*
X161000D02*
D03*
X171000Y296000D02*
D03*
X161000D02*
D03*
X171000Y306000D02*
D03*
X161000D02*
D03*
X151000Y316000D02*
D03*
X141000D02*
D03*
X151000Y326000D02*
D03*
X141000D02*
D03*
X151000Y336000D02*
D03*
X141000D02*
D03*
X151000Y346000D02*
D03*
X141000D02*
D03*
X151000Y356000D02*
D03*
X141000D02*
D03*
Y66000D02*
D03*
X151000Y76000D02*
D03*
X141000D02*
D03*
X151000Y86000D02*
D03*
X141000D02*
D03*
X151000Y96000D02*
D03*
X141000D02*
D03*
X151000Y106000D02*
D03*
X141000D02*
D03*
X151000Y116000D02*
D03*
X141000D02*
D03*
X151000Y126000D02*
D03*
X141000D02*
D03*
X151000Y136000D02*
D03*
X141000D02*
D03*
X151000Y146000D02*
D03*
X141000D02*
D03*
X151000Y156000D02*
D03*
X141000D02*
D03*
X151000Y166000D02*
D03*
X141000D02*
D03*
X151000Y176000D02*
D03*
X141000D02*
D03*
X151000Y186000D02*
D03*
X141000D02*
D03*
X151000Y196000D02*
D03*
X141000D02*
D03*
X151000Y206000D02*
D03*
X141000D02*
D03*
X151000Y216000D02*
D03*
X141000D02*
D03*
X151000Y226000D02*
D03*
X141000D02*
D03*
X151000Y236000D02*
D03*
X141000D02*
D03*
X151000Y246000D02*
D03*
X141000D02*
D03*
X151000Y256000D02*
D03*
X141000D02*
D03*
X151000Y266000D02*
D03*
X141000D02*
D03*
X151000Y276000D02*
D03*
X141000D02*
D03*
X151000Y286000D02*
D03*
X141000D02*
D03*
X151000Y296000D02*
D03*
X141000D02*
D03*
X151000Y306000D02*
D03*
X141000D02*
D03*
X111000Y316000D02*
D03*
X101000D02*
D03*
X111000Y326000D02*
D03*
X101000D02*
D03*
X111000Y336000D02*
D03*
X101000D02*
D03*
X111000Y346000D02*
D03*
X101000D02*
D03*
X111000Y356000D02*
D03*
X101000D02*
D03*
Y66000D02*
D03*
X111000Y76000D02*
D03*
X101000D02*
D03*
X111000Y86000D02*
D03*
X101000D02*
D03*
X111000Y96000D02*
D03*
X101000D02*
D03*
X111000Y106000D02*
D03*
X101000D02*
D03*
X111000Y116000D02*
D03*
X101000D02*
D03*
X111000Y126000D02*
D03*
X101000D02*
D03*
X111000Y136000D02*
D03*
X101000D02*
D03*
X111000Y146000D02*
D03*
X101000D02*
D03*
X111000Y156000D02*
D03*
X101000D02*
D03*
X111000Y166000D02*
D03*
X101000D02*
D03*
X111000Y176000D02*
D03*
X101000D02*
D03*
X111000Y186000D02*
D03*
X101000D02*
D03*
X111000Y196000D02*
D03*
X101000D02*
D03*
X111000Y206000D02*
D03*
X101000D02*
D03*
X111000Y216000D02*
D03*
X101000D02*
D03*
X111000Y226000D02*
D03*
X101000D02*
D03*
X111000Y236000D02*
D03*
X101000D02*
D03*
X111000Y246000D02*
D03*
X101000D02*
D03*
X111000Y256000D02*
D03*
X101000D02*
D03*
X111000Y266000D02*
D03*
X101000D02*
D03*
X111000Y276000D02*
D03*
X101000D02*
D03*
X111000Y286000D02*
D03*
X101000D02*
D03*
X111000Y296000D02*
D03*
X101000D02*
D03*
X111000Y306000D02*
D03*
X101000D02*
D03*
X71000Y316000D02*
D03*
X61000D02*
D03*
X71000Y326000D02*
D03*
X61000D02*
D03*
X71000Y336000D02*
D03*
X61000D02*
D03*
X71000Y346000D02*
D03*
X61000D02*
D03*
X71000Y356000D02*
D03*
X61000D02*
D03*
Y66000D02*
D03*
X71000Y76000D02*
D03*
X61000D02*
D03*
X71000Y86000D02*
D03*
X61000D02*
D03*
X71000Y96000D02*
D03*
X61000D02*
D03*
X71000Y106000D02*
D03*
X61000D02*
D03*
X71000Y116000D02*
D03*
X61000D02*
D03*
X71000Y126000D02*
D03*
X61000D02*
D03*
X71000Y136000D02*
D03*
X61000D02*
D03*
X71000Y146000D02*
D03*
X61000D02*
D03*
X71000Y156000D02*
D03*
X61000D02*
D03*
X71000Y166000D02*
D03*
X61000D02*
D03*
X71000Y176000D02*
D03*
X61000D02*
D03*
X71000Y186000D02*
D03*
X61000D02*
D03*
X71000Y196000D02*
D03*
X61000D02*
D03*
X71000Y206000D02*
D03*
X61000D02*
D03*
X71000Y216000D02*
D03*
X61000D02*
D03*
X71000Y226000D02*
D03*
X61000D02*
D03*
X71000Y236000D02*
D03*
X61000D02*
D03*
X71000Y246000D02*
D03*
X61000D02*
D03*
X71000Y256000D02*
D03*
X61000D02*
D03*
X71000Y266000D02*
D03*
X61000D02*
D03*
X71000Y276000D02*
D03*
X61000D02*
D03*
X71000Y286000D02*
D03*
X61000D02*
D03*
X71000Y296000D02*
D03*
X61000D02*
D03*
X71000Y306000D02*
D03*
X61000D02*
D03*
X31000Y316000D02*
D03*
X21000D02*
D03*
X31000Y326000D02*
D03*
X21000D02*
D03*
X31000Y336000D02*
D03*
X21000D02*
D03*
X31000Y346000D02*
D03*
X21000D02*
D03*
X31000Y356000D02*
D03*
X21000D02*
D03*
Y66000D02*
D03*
X31000Y76000D02*
D03*
X21000D02*
D03*
X31000Y86000D02*
D03*
X21000D02*
D03*
X31000Y96000D02*
D03*
X21000D02*
D03*
X31000Y106000D02*
D03*
X21000D02*
D03*
X31000Y116000D02*
D03*
X21000D02*
D03*
X31000Y126000D02*
D03*
X21000D02*
D03*
X31000Y136000D02*
D03*
X21000D02*
D03*
X31000Y146000D02*
D03*
X21000D02*
D03*
X31000Y156000D02*
D03*
X21000D02*
D03*
X31000Y166000D02*
D03*
X21000D02*
D03*
X31000Y176000D02*
D03*
X21000D02*
D03*
X31000Y186000D02*
D03*
X21000D02*
D03*
X31000Y196000D02*
D03*
X21000D02*
D03*
X31000Y206000D02*
D03*
X21000D02*
D03*
X31000Y216000D02*
D03*
X21000D02*
D03*
X31000Y226000D02*
D03*
X21000D02*
D03*
X31000Y236000D02*
D03*
X21000D02*
D03*
X31000Y246000D02*
D03*
X21000D02*
D03*
X31000Y256000D02*
D03*
X21000D02*
D03*
X31000Y266000D02*
D03*
X21000D02*
D03*
X31000Y276000D02*
D03*
X21000D02*
D03*
X31000Y286000D02*
D03*
X21000D02*
D03*
X31000Y296000D02*
D03*
X21000D02*
D03*
X31000Y306000D02*
D03*
X21000D02*
D03*
D27*
X91000Y66000D02*
D03*
X231000D02*
D03*
X191000D02*
D03*
X171000D02*
D03*
X151000D02*
D03*
X111000D02*
D03*
X71000D02*
D03*
X31000D02*
D03*
D28*
X46000Y60000D02*
D03*
X206000D02*
D03*
Y355000D02*
D03*
X46000D02*
D03*
D29*
X36874Y9142D02*
D03*
D30*
X29000D02*
D03*
X21126D02*
D03*
Y26858D02*
D03*
X29000D02*
D03*
X36874D02*
D03*
D31*
X91008Y25480D02*
D03*
Y10520D02*
D03*
X56992D02*
D03*
Y25480D02*
D03*
D32*
X8000Y41000D02*
D03*
Y36000D02*
D03*
X14000Y41000D02*
D03*
Y36000D02*
D03*
X71000Y52000D02*
D03*
Y47000D02*
D03*
X77000Y52000D02*
D03*
Y47000D02*
D03*
X211000Y33000D02*
D03*
Y28000D02*
D03*
X217000Y33000D02*
D03*
Y28000D02*
D03*
X100846Y21015D02*
D03*
Y16015D02*
D03*
X106846Y21015D02*
D03*
Y16015D02*
D03*
X122000Y113000D02*
D03*
Y108000D02*
D03*
X128000Y113000D02*
D03*
Y108000D02*
D03*
X239000Y213000D02*
D03*
Y208000D02*
D03*
X245000Y213000D02*
D03*
Y208000D02*
D03*
X5000Y212000D02*
D03*
Y207000D02*
D03*
X11000Y212000D02*
D03*
Y207000D02*
D03*
X202000Y135000D02*
D03*
Y130000D02*
D03*
X208000Y135000D02*
D03*
Y130000D02*
D03*
X202000Y218000D02*
D03*
Y213000D02*
D03*
X208000Y218000D02*
D03*
Y213000D02*
D03*
X203000Y273000D02*
D03*
Y268000D02*
D03*
X209000Y273000D02*
D03*
Y268000D02*
D03*
X203000Y336000D02*
D03*
Y331000D02*
D03*
X209000Y336000D02*
D03*
Y331000D02*
D03*
X42000Y330000D02*
D03*
Y325000D02*
D03*
X48000Y330000D02*
D03*
Y325000D02*
D03*
X43000Y262000D02*
D03*
Y257000D02*
D03*
X49000Y262000D02*
D03*
Y257000D02*
D03*
X43000Y134000D02*
D03*
Y129000D02*
D03*
X49000Y134000D02*
D03*
Y129000D02*
D03*
Y79000D02*
D03*
Y84000D02*
D03*
X43000Y79000D02*
D03*
Y84000D02*
D03*
M02*
